<svg xmlns="http://www.w3.org/2000/svg" xmlns:xlink="http://www.w3.org/1999/xlink" viewBox="0 0 600 900">
	<defs>
		<g id="check"><path d="M45,150 L60,135 L120,195 L255,60 L270,75 L120,225 Z" /></g>
		<g id="cross"><path d="M45,60 L60,45 L150,135 L240,45 L255,60 L165,150 L255,240 L240,255 L150,165 L60,255 L45,240 L135,150 Z" /></g>
		<g id="arrow-down"><path d="M15,120 H135 L75,180 Z" /></g>
		<g id="arrow-up"><path d="M15,180 H135 L75,120 Z" /></g>
	</defs>
	<use x="0" y="0" style="fill: black;" xlink:href="#check" /><use x="300" y="0" style="fill: white;" xlink:href="#check" />
	<use x="0" y="300" style="fill: black;" xlink:href="#cross" /><use x="300" y="300" style="fill: white;" xlink:href="#cross" />
	<use x="0" y="600" style="fill: black;" xlink:href="#arrow-down" /><use x="150" y="600" style="fill: white;" xlink:href="#arrow-down" />
	<use x="300" y="600" style="fill: black;" xlink:href="#arrow-up" /><use x="450" y="600" style="fill: white;" xlink:href="#arrow-up" />
	<view id="check-off" viewBox="0 0 300 300" /><view id="check-on" viewBox="300 0 300 300" />
	<view id="cross-off" viewBox="0 300 300 300" /><view id="cross-on" viewBox="300 300 300 300" />
	<view id="arrow-down-off" viewBox="0 600 150 300" /><view id="arrow-down-on" viewBox="150 600 150 300" />
	<view id="arrow-up-off" viewBox="300 600 150 300" /><view id="arrow-up-on" viewBox="450 600 150 300" />
</svg>
